<svg viewBox="104 380 1308 156" xmlns="http://www.w3.org/2000/svg">
  <g><path d="M0 0 C0.994 -0.005 1.987 -0.01 3.011 -0.015 C6.316 -0.03 9.62 -0.036 12.925 -0.042 C15.216 -0.048 17.507 -0.053 19.799 -0.059 C24.612 -0.07 29.426 -0.076 34.24 -0.079 C40.404 -0.085 46.567 -0.109 52.731 -0.137 C57.468 -0.156 62.205 -0.161 66.943 -0.162 C69.214 -0.165 71.486 -0.173 73.758 -0.187 C76.942 -0.204 80.125 -0.202 83.309 -0.195 C84.245 -0.205 85.181 -0.214 86.146 -0.223 C92.808 -0.181 97.788 0.697 102.917 5.286 C105.842 10.46 106.113 15.095 104.542 20.786 C99.39 29.481 92.428 33.083 83.355 37.036 C81.5 37.867 79.647 38.704 77.795 39.541 C76.477 40.135 75.158 40.728 73.839 41.318 C63.98 45.738 54.237 50.411 44.478 55.046 C42.974 55.761 41.469 56.475 39.964 57.188 C39.238 57.533 38.511 57.878 37.762 58.234 C33.401 60.298 29.022 62.313 24.621 64.29 C23.627 64.742 22.634 65.194 21.611 65.66 C19.836 66.466 18.054 67.257 16.265 68.031 C15.507 68.378 14.749 68.725 13.968 69.083 C13.323 69.368 12.677 69.652 12.012 69.945 C10.542 71.161 10.542 71.161 9.542 76.161 C38.582 76.491 67.622 76.821 97.542 77.161 C97.542 82.441 97.542 87.721 97.542 93.161 C85.998 93.208 74.453 93.243 62.909 93.265 C57.547 93.275 52.186 93.289 46.824 93.312 C41.644 93.334 36.463 93.346 31.283 93.351 C29.313 93.355 27.343 93.362 25.373 93.373 C-2.069 93.518 -2.069 93.518 -9.86 86.927 C-13.468 82.939 -14.76 78.496 -14.583 73.161 C-13.415 67.38 -9.143 63.048 -4.421 59.73 C-2.056 58.38 0.343 57.164 2.792 55.974 C3.743 55.494 4.694 55.015 5.674 54.521 C8.576 53.069 11.487 51.636 14.402 50.21 C16.781 49.044 19.156 47.87 21.531 46.696 C27.135 43.925 32.743 41.165 38.355 38.411 C39.266 37.964 40.178 37.516 41.117 37.055 C43.805 35.737 46.495 34.425 49.187 33.114 C50.052 32.692 50.916 32.269 51.807 31.834 C56.109 29.749 60.426 27.76 64.837 25.917 C65.674 25.564 66.511 25.211 67.373 24.847 C68.953 24.188 70.539 23.546 72.133 22.923 C74.252 22.039 74.252 22.039 77.542 20.161 C78.248 17.544 78.248 17.544 78.542 15.161 C77.457 15.163 76.371 15.166 75.253 15.168 C65.041 15.188 54.828 15.203 44.616 15.213 C39.365 15.218 34.114 15.225 28.864 15.237 C23.8 15.247 18.736 15.253 13.672 15.256 C11.737 15.258 9.801 15.261 7.866 15.267 C5.163 15.274 2.459 15.275 -0.244 15.275 C-1.05 15.278 -1.857 15.282 -2.688 15.286 C-8.229 15.275 -8.229 15.275 -10.458 14.161 C-10.484 12.015 -10.504 9.87 -10.52 7.724 C-10.532 6.529 -10.543 5.334 -10.555 4.103 C-10.352 -2.03 -4.861 0.006 0 0 Z " fill="#720B0F" transform="translate(140.45751953125,416.8388671875)"/></g>
  <g transform="translate(20,0)">
      <path xmlns="http://www.w3.org/2000/svg" d="M0 0 C5.382 4.824 8.447 11.194 11.625 17.562 C12.684 19.64 13.746 21.717 14.809 23.793 C15.342 24.838 15.876 25.882 16.425 26.958 C18.764 31.476 21.224 35.924 23.688 40.375 C28.986 49.994 34.042 59.733 39.062 69.5 C39.436 70.227 39.81 70.954 40.195 71.702 C43.492 78.121 46.773 84.546 50 91 C43.4 91 36.8 91 30 91 C29.105 89.199 28.211 87.398 27.289 85.543 C15.544 61.947 15.544 61.947 9.982 51.552 C7.618 47.12 5.317 42.661 3.067 38.171 C1.639 35.323 0.201 32.48 -1.237 29.637 C-1.949 28.223 -2.656 26.806 -3.358 25.386 C-4.347 23.386 -5.353 21.396 -6.363 19.406 C-6.944 18.244 -7.524 17.082 -8.122 15.885 C-10.144 12.779 -11.639 11.497 -15 10 C-17.562 10.25 -17.562 10.25 -20 11 C-20.722 11.082 -21.444 11.165 -22.188 11.25 C-24 12 -24 12 -24.945 14.203 C-25.119 14.664 -25.119 14.664 -26 17 C-26.877 18.845 -27.775 20.68 -28.688 22.508 C-28.952 23.037 -28.952 23.037 -30.289 25.716 C-30.854 26.841 -31.418 27.966 -32 29.125 C-32.586 30.295 -33.172 31.465 -33.776 32.67 C-37.465 40.012 -41.234 47.304 -45.099 54.555 C-49.714 63.259 -54.073 72.094 -58.443 80.923 C-59.02 82.086 -59.597 83.248 -60.191 84.445 C-60.709 85.492 -61.227 86.539 -61.76 87.618 C-63 90 -63 90 -64 91 C-65.489 91.087 -66.981 91.107 -68.473 91.098 C-69.372 91.094 -70.271 91.091 -71.197 91.088 C-71.67 91.084 -71.67 91.084 -74.062 91.062 C-75.012 91.058 -75.961 91.053 -76.939 91.049 C-79.293 91.037 -81.646 91.021 -84 91 C-78.714 80.381 -73.371 69.794 -67.938 59.25 C-67.577 58.55 -67.217 57.851 -66.846 57.13 C-61.573 46.902 -56.237 36.71 -50.812 26.562 C-50.214 25.439 -49.615 24.316 -48.998 23.159 C-37.261 1.307 -37.261 1.307 -27.438 -2.312 C-18.589 -4.103 -8.092 -4.427 0 0 Z " fill="#720B0F" transform="translate(320,418)"/>
      <path d="M0 0 C11.284 -0.07 22.567 -0.123 33.851 -0.155 C39.092 -0.171 44.332 -0.192 49.573 -0.226 C54.636 -0.259 59.7 -0.277 64.764 -0.285 C66.689 -0.29 68.615 -0.301 70.54 -0.317 C96.314 -0.526 96.314 -0.526 103.938 6.688 C110.644 13.31 112.72 19.33 113.156 28.75 C112.783 36.51 109.602 42.323 103.945 47.539 C101.336 49.499 98.615 50.845 95.602 52.078 C94 53 94 53 93 56 C93.953 58.154 93.953 58.154 95.465 60.648 C95.74 61.107 95.74 61.107 97.13 63.429 C97.428 63.915 97.428 63.915 98.938 66.375 C99.532 67.362 100.126 68.349 100.739 69.366 C104.675 75.887 108.659 82.38 112.707 88.832 C114 91 114 91 114 92 C107.54 93.787 101.244 95.044 95 92 C88.313 84.96 84.055 75.874 79.692 67.281 C74.177 56.589 74.177 56.589 71 55 C69.275 54.881 67.545 54.823 65.816 54.795 C64.735 54.775 63.654 54.755 62.54 54.734 C61.369 54.718 60.199 54.701 58.992 54.684 C57.796 54.663 56.601 54.642 55.369 54.621 C51.538 54.555 47.706 54.496 43.875 54.438 C41.283 54.394 38.69 54.351 36.098 54.307 C29.732 54.199 23.366 54.1 17 54 C16.67 66.54 16.34 79.08 16 92 C10.72 92 5.44 92 0 92 C0 74.51 0 57.02 0 39 C3.027 38.981 3.027 38.981 18.348 38.887 C22.189 38.856 26.031 38.825 29.873 38.791 C35.967 38.737 42.062 38.686 48.156 38.654 C53.071 38.628 57.986 38.587 62.9 38.537 C64.773 38.52 66.646 38.509 68.518 38.502 C71.147 38.493 73.774 38.465 76.403 38.432 C76.787 38.433 76.787 38.433 78.735 38.437 C83.847 38.348 87.447 37.366 92 35 C94.832 31.391 95.081 27.698 94.562 23.25 C92.564 19.092 91.207 17.919 87 16 C78.462 14.503 69.617 14.879 60.978 14.925 C58.507 14.938 56.036 14.944 53.564 14.949 C48.335 14.96 43.105 14.98 37.875 15 C31.777 15.024 25.679 15.044 19.58 15.056 C17.142 15.062 14.704 15.075 12.266 15.088 C10.785 15.091 9.305 15.095 7.824 15.098 C6.527 15.103 5.23 15.108 3.894 15.114 C1 15 1 15 0 14 C-0.868 8.882 -0.909 5.135 0 0 Z " fill="#720B0F" transform="translate(386,417)"/><path d="M0 0 C5.28 0 10.56 0 16 0 C16 30.36 16 60.72 16 92 C10.72 92 5.44 92 0 92 C0 61.64 0 31.28 0 0 Z " fill="#720B0F" transform="translate(522,417)"/><path d="M0 0 C5.382 4.824 8.447 11.194 11.625 17.562 C12.684 19.64 13.746 21.717 14.809 23.793 C15.342 24.838 15.876 25.882 16.425 26.958 C18.764 31.476 21.224 35.924 23.688 40.375 C28.986 49.994 34.042 59.733 39.062 69.5 C39.436 70.227 39.81 70.954 40.195 71.702 C43.492 78.121 46.773 84.546 50 91 C43.4 91 36.8 91 30 91 C29.105 89.199 28.211 87.398 27.289 85.543 C15.544 61.947 15.544 61.947 9.982 51.552 C7.618 47.12 5.317 42.661 3.067 38.171 C1.639 35.323 0.201 32.48 -1.237 29.637 C-1.949 28.223 -2.656 26.806 -3.358 25.386 C-4.347 23.386 -5.353 21.396 -6.363 19.406 C-6.944 18.244 -7.524 17.082 -8.122 15.885 C-10.144 12.779 -11.639 11.497 -15 10 C-17.562 10.25 -17.562 10.25 -20 11 C-20.722 11.082 -21.444 11.165 -22.188 11.25 C-24 12 -24 12 -24.945 14.203 C-25.119 14.664 -25.119 14.664 -26 17 C-26.877 18.845 -27.775 20.68 -28.688 22.508 C-28.952 23.037 -28.952 23.037 -30.289 25.716 C-30.854 26.841 -31.418 27.966 -32 29.125 C-32.586 30.295 -33.172 31.465 -33.776 32.67 C-37.465 40.012 -41.234 47.304 -45.099 54.555 C-49.714 63.259 -54.073 72.094 -58.443 80.923 C-59.02 82.086 -59.597 83.248 -60.191 84.445 C-60.709 85.492 -61.227 86.539 -61.76 87.618 C-63 90 -63 90 -64 91 C-65.489 91.087 -66.981 91.107 -68.473 91.098 C-69.372 91.094 -70.271 91.091 -71.197 91.088 C-71.67 91.084 -71.67 91.084 -74.062 91.062 C-75.012 91.058 -75.961 91.053 -76.939 91.049 C-79.293 91.037 -81.646 91.021 -84 91 C-78.714 80.381 -73.371 69.794 -67.938 59.25 C-67.577 58.55 -67.217 57.851 -66.846 57.13 C-61.573 46.902 -56.237 36.71 -50.812 26.562 C-50.214 25.439 -49.615 24.316 -48.998 23.159 C-37.261 1.307 -37.261 1.307 -27.438 -2.312 C-18.589 -4.103 -8.092 -4.427 0 0 Z " fill="#720B0F" transform="translate(786,418)"/><path d="M0 0 C5.28 0 10.56 0 16 0 C16.004 1.927 16.008 3.854 16.012 5.84 C16.032 12.23 16.074 18.62 16.132 25.01 C16.166 28.882 16.191 32.754 16.196 36.625 C16.2 40.367 16.228 44.108 16.273 47.849 C16.286 49.272 16.291 50.694 16.286 52.116 C16.253 65.372 16.253 65.372 20.15 71.484 C25.276 75.683 31.529 76.446 37.977 76.432 C38.729 76.443 39.481 76.453 40.256 76.463 C42.712 76.493 45.168 76.503 47.625 76.512 C49.34 76.529 51.055 76.547 52.77 76.566 C57.261 76.613 61.752 76.643 66.244 76.67 C70.836 76.699 75.428 76.746 80.02 76.791 C89.013 76.877 98.006 76.943 107 77 C107 81.95 107 86.9 107 92 C96.351 92.091 85.702 92.164 75.053 92.207 C70.107 92.228 65.161 92.256 60.216 92.302 C55.437 92.345 50.659 92.369 45.88 92.38 C44.063 92.387 42.246 92.401 40.429 92.423 C27.728 92.568 17.51 92.144 7.758 83.004 C1.049 75.356 -0.24 67.754 -0.625 57.938 C-0.67 56.791 -0.715 55.645 -0.761 54.464 C-1.327 36.314 -0.57 18.143 0 0 Z " fill="#720B0F" transform="translate(844,417)"/><path d="M0 0 C5.609 4.931 8.591 11.632 11.75 18.25 C12.806 20.411 13.863 22.571 14.922 24.73 C15.442 25.796 15.962 26.861 16.498 27.958 C18.592 32.199 20.781 36.386 23 40.562 C23.811 42.092 24.622 43.622 25.434 45.152 C25.846 45.929 26.258 46.707 26.683 47.507 C29.164 52.202 31.611 56.915 34.062 61.625 C38.137 69.451 42.238 77.263 46.41 85.038 C49 89.892 49 89.892 49 91 C42.73 91 36.46 91 30 91 C24.367 80.414 18.853 69.787 13.512 59.051 C13.233 58.492 13.233 58.492 11.825 55.662 C9.526 51.035 7.229 46.407 4.936 41.777 C3.236 38.345 1.53 34.917 -0.176 31.488 C-0.687 30.452 -1.199 29.415 -1.726 28.347 C-8.27 15.213 -8.27 15.213 -11 12 C-14.514 10.89 -16.606 10.472 -20.078 11.786 C-22.289 13.182 -23.006 14.233 -24.191 16.543 C-24.573 17.275 -24.954 18.007 -25.347 18.761 C-25.748 19.562 -26.149 20.362 -26.562 21.188 C-26.994 22.028 -27.425 22.868 -27.869 23.733 C-31.652 31.162 -35.245 38.684 -38.814 46.217 C-43.323 55.733 -48.029 65.145 -52.766 74.548 C-54.581 78.154 -56.384 81.764 -58.188 85.375 C-58.652 86.303 -58.652 86.303 -61 91 C-67.6 91 -74.2 91 -81 91 C-79.489 87.222 -77.906 83.683 -76.094 80.055 C-75.807 79.48 -75.807 79.48 -74.355 76.572 C-73.737 75.339 -73.119 74.107 -72.5 72.875 C-72.185 72.247 -71.871 71.619 -71.546 70.972 C-66.991 61.882 -62.348 52.844 -57.574 43.867 C-55.592 40.136 -53.644 36.388 -51.707 32.633 C-51.134 31.524 -50.561 30.415 -49.971 29.272 C-48.858 27.116 -47.748 24.959 -46.64 22.8 C-35.757 1.743 -35.757 1.743 -27 -1.75 C-18.356 -4.372 -8.067 -4.338 0 0 Z " fill="#720B0F" transform="translate(1047,418)"/><path d="M0 0 C11.788 -0.07 23.576 -0.123 35.364 -0.155 C40.839 -0.171 46.313 -0.192 51.788 -0.226 C57.079 -0.259 62.37 -0.277 67.661 -0.285 C69.672 -0.29 71.682 -0.301 73.693 -0.317 C99.793 -0.52 99.793 -0.52 108.438 6.062 C114.011 11.613 117.239 17.769 117.5 25.688 C117.058 33.963 113.503 39.141 108 45 C109.537 47.689 111.088 50.106 113.062 52.5 C117.114 57.727 118.338 63.697 117.824 70.234 C116.659 77.06 113.497 82.255 108.039 86.539 C101.056 91.114 94.819 92.295 86.598 92.227 C85.671 92.227 84.743 92.228 83.788 92.228 C80.736 92.227 77.684 92.211 74.633 92.195 C72.511 92.192 70.39 92.189 68.269 92.187 C62.696 92.179 57.123 92.159 51.55 92.137 C44.857 92.113 38.165 92.104 31.473 92.092 C21.315 92.073 11.158 92.035 1 92 C1 74.51 1 57.02 1 39 C7.355 38.963 13.71 38.925 20.258 38.887 C24.286 38.856 28.315 38.825 32.344 38.791 C38.737 38.737 45.129 38.686 51.522 38.654 C56.677 38.628 61.832 38.587 66.987 38.537 C68.952 38.52 70.918 38.509 72.883 38.502 C75.639 38.493 78.394 38.465 81.149 38.432 C81.96 38.434 82.77 38.435 83.605 38.437 C88.457 38.356 91.784 37.653 96 35 C98.443 32.068 98.967 30.312 99.375 26.5 C98.963 22.658 98.514 20.92 96 18 C90.524 15.103 86.166 14.577 80.035 14.659 C79.601 14.659 79.601 14.659 77.402 14.658 C74.55 14.66 71.699 14.683 68.848 14.707 C66.862 14.713 64.877 14.717 62.891 14.72 C57.682 14.731 52.472 14.761 47.262 14.794 C41.94 14.825 36.617 14.838 31.295 14.854 C20.863 14.886 10.432 14.937 0 15 C0 10.05 0 5.1 0 0 Z M18.152 54.403 C15.918 57.499 16.247 61.236 16.062 64.938 C15.995 65.749 15.927 66.56 15.857 67.396 C15.813 68.182 15.768 68.968 15.723 69.777 C15.679 70.491 15.635 71.205 15.59 71.941 C16.2 75.003 17.585 76.068 20 78 C22.964 78.501 22.964 78.501 26.462 78.502 C27.774 78.511 29.086 78.52 30.438 78.53 C31.869 78.52 33.3 78.508 34.73 78.496 C36.205 78.496 37.68 78.498 39.155 78.501 C42.248 78.502 45.34 78.489 48.433 78.467 C52.376 78.438 56.318 78.441 60.261 78.454 C63.309 78.461 66.357 78.453 69.406 78.44 C70.858 78.436 72.31 78.436 73.763 78.439 C89.503 78.462 89.503 78.462 96 75 C98.677 72.323 99.868 70.59 100.184 66.785 C99.978 62.801 99.278 60.421 97.062 57.062 C89.058 51.672 78.412 52.688 69.129 52.699 C67.715 52.695 66.302 52.691 64.889 52.686 C61.948 52.679 59.007 52.679 56.067 52.684 C52.298 52.69 48.53 52.673 44.762 52.65 C41.853 52.635 38.944 52.634 36.035 52.637 C34.645 52.637 33.254 52.632 31.864 52.622 C29.928 52.609 27.993 52.618 26.057 52.628 C24.957 52.627 23.857 52.626 22.723 52.626 C20 53 20 53 18.152 54.403 Z " fill="#720B0F" transform="translate(1110,417)"/><path d="M0 0 C2.004 0.006 4.007 0.01 6.011 0.013 C11.255 0.024 16.499 0.054 21.743 0.087 C27.106 0.118 32.469 0.131 37.832 0.146 C48.333 0.179 58.835 0.23 69.336 0.293 C69.336 4.913 69.336 9.533 69.336 14.293 C62.07 14.439 54.804 14.581 47.538 14.72 C44.993 14.768 42.449 14.818 39.904 14.868 C14.914 15.355 14.914 15.355 4.25 15.254 C3.543 15.248 2.837 15.242 2.109 15.236 C-0.985 15.207 -4.077 15.158 -7.17 15.08 C-13.9 14.985 -19.447 15.183 -24.539 20.105 C-26.769 24.442 -26.956 27.28 -25.602 31.98 C-23.29 35.932 -21.865 36.629 -17.664 38.293 C-14.314 38.658 -14.314 38.658 -10.624 38.646 C-9.947 38.648 -9.269 38.65 -8.572 38.653 C-7.11 38.656 -5.648 38.652 -4.186 38.643 C-1.864 38.629 0.457 38.635 2.779 38.647 C9.379 38.678 15.978 38.674 22.577 38.653 C26.623 38.642 30.669 38.656 34.716 38.683 C36.248 38.689 37.781 38.685 39.313 38.671 C49.358 38.581 57.747 39.191 65.465 46.237 C71.468 52.441 73.458 58.255 73.773 66.793 C73.531 75.53 70.538 80.465 64.605 86.652 C58.017 91.415 51.694 92.883 43.685 92.747 C42.767 92.748 41.849 92.748 40.903 92.749 C37.9 92.746 34.898 92.715 31.895 92.684 C29.8 92.676 27.705 92.67 25.611 92.666 C20.121 92.651 14.632 92.612 9.143 92.568 C3.532 92.527 -2.079 92.508 -7.689 92.488 C-18.681 92.445 -29.673 92.377 -40.664 92.293 C-40.664 87.343 -40.664 82.393 -40.664 77.293 C-39.56 77.287 -38.456 77.281 -37.319 77.275 C-26.916 77.218 -16.513 77.145 -6.111 77.057 C-0.763 77.013 4.586 76.973 9.934 76.947 C15.095 76.921 20.256 76.88 25.417 76.83 C27.386 76.813 29.356 76.802 31.325 76.795 C34.083 76.786 36.84 76.758 39.598 76.725 C40.413 76.727 41.227 76.728 42.066 76.73 C46.66 76.653 49.675 76.138 53.336 73.293 C55.9 69.874 55.632 66.443 55.336 62.293 C54.451 59.398 53.621 58.502 51.17 56.708 C47.771 55.011 45.475 54.915 41.685 54.908 C41.037 54.903 40.389 54.897 39.721 54.892 C38.321 54.882 36.92 54.879 35.52 54.882 C33.294 54.887 31.069 54.873 28.844 54.854 C24.112 54.817 19.38 54.803 14.648 54.793 C9.178 54.781 3.708 54.759 -1.762 54.713 C-3.938 54.7 -6.115 54.704 -8.292 54.708 C-18.314 54.669 -27.522 54.187 -35.102 46.98 C-35.905 46.242 -36.708 45.503 -37.535 44.742 C-42.938 38.527 -44.057 32.198 -43.93 24.234 C-43.173 15.858 -39.606 10.531 -33.469 4.984 C-23.197 -1.21 -11.56 -0.095 0 0 Z " fill="#720B0F" transform="translate(1288.6640625,416.70703125)"/>
      <rect x="563" y="417" width="14" height="91" rx="4" fill="#720B0F"/><rect x="669" y="417" width="14" height="91" rx="4" fill="#720B0F"/><path d="M 570.0 424.0 L 588.0 424.0 L 593.0 426.4 L 598.0 430.1 L 603.0 434.6 L 608.0 440.1 L 613.0 446.4 L 618.0 453.2 L 623.0 460.2 L 628.0 467.3 L 633.0 474.2 L 638.0 480.8 L 643.0 486.6 L 648.0 491.8 L 653.0 495.9 L 658.0 499.5 L 676.0 501.0" fill="none" stroke="#720B0F" stroke-width="14" stroke-linecap="round" stroke-linejoin="round"/>
      
  </g>
</svg>